<?xml version="1.0" encoding="utf-8"?>
<svg width="529px" height="84px" viewBox="0 0 529 84" version="1.1" xmlns:xlink="http://www.w3.org/1999/xlink" xmlns="http://www.w3.org/2000/svg">
  <g id="PROJECTS">
    <g stroke="#707070" stroke-opacity="0.35686275" stroke-width="1" id="PROJECTS" fill="#DDDDDD" fill-opacity="0">
      <path d="M42.752 50.24L21.248 50.24L21.248 65.152L3.072 65.152L3.072 17.536L42.752 17.536Q65.344 17.536 65.344 33.28L65.344 34.304Q65.344 50.24 42.752 50.24ZM21.248 29.44L21.248 38.336L40.576 38.336Q46.592 38.336 46.592 33.984L46.592 33.792Q46.592 29.44 40.576 29.44L21.248 29.44ZM87.616 29.12L87.616 37.312L108.48 37.312Q113.984 37.312 113.984 33.216L113.984 33.152Q113.984 29.12 108.48 29.12L87.616 29.12ZM87.616 48.832L87.616 65.152L69.44 65.152L69.44 17.536L112.704 17.536Q132.736 17.536 132.736 29.76L132.736 30.464Q132.736 32.896 131.776 34.88Q130.816 36.864 129.248 38.08Q127.68 39.296 126.176 40Q124.672 40.704 123.136 41.088Q127.68 42.112 130.304 45.024Q132.928 47.936 132.928 52.416L132.928 59.456Q132.928 63.168 133.824 64.832L133.824 65.152L115.264 65.152Q114.688 64.512 114.688 62.656L114.688 57.088Q114.688 52.864 112.48 50.848Q110.272 48.832 105.024 48.832L87.616 48.832ZM170.816 16.64L173.696 16.64Q180.032 16.64 185.248 17.504Q190.464 18.368 194.016 19.744Q197.568 21.12 200.224 23.136Q202.88 25.152 204.416 27.2Q205.952 29.248 206.88 31.68Q207.808 34.112 208.096 36.096Q208.384 38.08 208.384 40.256L208.384 42.176Q208.384 44.352 208.096 46.336Q207.808 48.32 206.88 50.784Q205.952 53.248 204.448 55.328Q202.944 57.408 200.256 59.456Q197.568 61.504 194.048 62.912Q190.528 64.32 185.312 65.184Q180.096 66.048 173.696 66.048L170.816 66.048Q164.416 66.048 159.2 65.184Q153.984 64.32 150.432 62.912Q146.88 61.504 144.192 59.456Q141.504 57.408 140 55.328Q138.496 53.248 137.568 50.784Q136.64 48.32 136.352 46.336Q136.064 44.352 136.064 42.176L136.064 40.256Q136.064 38.08 136.352 36.096Q136.64 34.112 137.568 31.68Q138.496 29.248 140 27.2Q141.504 25.152 144.192 23.136Q146.88 21.12 150.432 19.744Q153.984 18.368 159.2 17.504Q164.416 16.64 170.816 16.64ZM189.568 41.6L189.568 40.704Q189.568 38.592 188.8 36.768Q188.032 34.944 186.208 33.216Q184.384 31.488 180.8 30.464Q177.216 29.44 172.224 29.44Q167.104 29.44 163.52 30.464Q159.936 31.488 158.144 33.216Q156.352 34.944 155.616 36.768Q154.88 38.592 154.88 40.704L154.88 41.472Q154.88 43.584 155.648 45.472Q156.416 47.36 158.208 49.184Q160 51.008 163.616 52.096Q167.232 53.184 172.224 53.184Q177.216 53.184 180.832 52.128Q184.448 51.072 186.24 49.28Q188.032 47.488 188.8 45.6Q189.568 43.712 189.568 41.6ZM240.704 65.856L236.8 65.856Q230.336 65.856 225.408 64.384Q220.48 62.912 217.696 60.704Q214.912 58.496 213.152 55.456Q211.392 52.416 210.848 49.824Q210.304 47.232 210.304 44.416L210.304 44.032L228.16 44.032Q228.992 52.224 238.656 52.224L239.168 52.224Q244.672 52.224 247.2 49.344Q249.728 46.464 249.728 41.536L249.728 17.536L267.904 17.536L267.904 41.92Q267.904 44.288 267.648 46.4Q267.392 48.512 266.624 50.976Q265.856 53.44 264.64 55.52Q263.424 57.6 261.312 59.552Q259.2 61.504 256.416 62.848Q253.632 64.192 249.6 65.024Q245.568 65.856 240.704 65.856ZM273.6 17.536L326.272 17.536L326.272 29.184L291.52 29.184L291.52 35.136L325.568 35.136L325.568 46.72L291.52 46.72L291.52 53.248L326.784 53.248L326.784 65.152L273.6 65.152L273.6 17.536ZM366.528 66.048L364.032 66.048Q355.648 66.048 349.344 64.384Q343.04 62.72 339.52 60.256Q336 57.792 333.824 54.4Q331.648 51.008 331.008 48.128Q330.368 45.248 330.368 42.112L330.368 40.256Q330.368 37.056 330.976 34.24Q331.584 31.424 333.696 28.064Q335.808 24.704 339.296 22.304Q342.784 19.904 349.152 18.272Q355.52 16.64 364.032 16.64L366.528 16.64Q372.48 16.64 377.44 17.408Q382.4 18.176 385.76 19.392Q389.12 20.608 391.712 22.304Q394.304 24 395.776 25.728Q397.248 27.456 398.176 29.408Q399.104 31.36 399.392 32.896Q399.68 34.432 399.68 35.904L399.68 36.736L380.8 36.736Q378.624 29.44 365.12 29.44Q349.184 29.44 349.184 40.576L349.184 41.344Q349.184 43.456 349.92 45.376Q350.656 47.296 352.352 49.152Q354.048 51.008 357.344 52.096Q360.64 53.184 365.184 53.184Q369.152 53.184 372.16 52.448Q375.168 51.712 376.704 50.816Q378.24 49.92 379.264 48.576Q380.288 47.232 380.48 46.656Q380.672 46.08 380.864 45.376L399.68 45.376L399.68 46.4Q399.68 48.576 399.04 50.848Q398.4 53.12 396.224 55.968Q394.048 58.816 390.624 60.96Q387.2 63.104 380.96 64.576Q374.72 66.048 366.528 66.048ZM422.272 65.152L422.272 30.528L401.728 30.528L401.728 17.536L460.992 17.536L460.992 30.528L440.448 30.528L440.448 65.152L422.272 65.152ZM498.24 66.048L492.416 66.048Q463.36 66.048 463.36 49.152L463.36 48.512L483.328 48.512Q483.84 55.232 495.232 55.232L495.808 55.232Q499.456 55.232 501.888 54.88Q504.32 54.528 505.472 53.856Q506.624 53.184 507.04 52.448Q507.456 51.712 507.456 50.752L507.456 50.688Q507.456 49.344 506.784 48.544Q506.112 47.744 503.584 47.136Q501.056 46.528 496.256 46.4L487.424 46.144Q464.064 45.504 464.064 31.808L464.064 31.232Q464.064 28.736 464.768 26.72Q465.472 24.704 467.328 22.784Q469.184 20.864 472.192 19.584Q475.2 18.304 480.096 17.504Q484.992 16.704 491.456 16.704L497.152 16.704Q526.08 16.704 526.08 31.744L526.08 32.256L506.304 32.256Q505.728 27.2 494.784 27.2L494.144 27.2Q489.664 27.2 487.232 27.744Q484.8 28.288 484.224 28.96Q483.648 29.632 483.648 30.72L483.648 30.784Q483.648 31.872 484.32 32.576Q484.992 33.28 487.36 33.824Q489.728 34.368 494.016 34.432L502.592 34.624Q516.096 35.008 521.92 38.368Q527.744 41.728 527.744 48.96L527.744 49.856Q527.744 52.48 527.104 54.624Q526.464 56.768 524.544 58.976Q522.624 61.184 519.456 62.688Q516.288 64.192 510.88 65.12Q505.472 66.048 498.24 66.048Z" />
    </g>
  </g>
</svg>