<?xml version="1.0" encoding="utf-8"?>
<svg width="323.13602px" height="84px" viewBox="0 0 323.13602 84" version="1.1" xmlns:xlink="http://www.w3.org/1999/xlink" xmlns="http://www.w3.org/2000/svg">
  <g id="STACK">
    <g stroke="#707070" stroke-opacity="0.35686275" stroke-width="1" id="STACK" fill="#DDDDDD" fill-opacity="0">
      <path d="M35.776 66.048L29.952 66.048Q0.896 66.048 0.896 49.152L0.896 48.512L20.864 48.512Q21.376 55.232 32.768 55.232L33.344 55.232Q36.992 55.232 39.424 54.88Q41.856 54.528 43.008 53.856Q44.16 53.184 44.576 52.448Q44.992 51.712 44.992 50.752L44.992 50.688Q44.992 49.344 44.32 48.544Q43.648 47.744 41.12 47.136Q38.592 46.528 33.792 46.4L24.96 46.144Q1.6 45.504 1.6 31.808L1.6 31.232Q1.6 28.736 2.304 26.72Q3.008 24.704 4.864 22.784Q6.72 20.864 9.728 19.584Q12.736 18.304 17.632 17.504Q22.528 16.704 28.992 16.704L34.688 16.704Q63.616 16.704 63.616 31.744L63.616 32.256L43.84 32.256Q43.264 27.2 32.32 27.2L31.68 27.2Q27.2 27.2 24.768 27.744Q22.336 28.288 21.76 28.96Q21.184 29.632 21.184 30.72L21.184 30.784Q21.184 31.872 21.856 32.576Q22.528 33.28 24.896 33.824Q27.264 34.368 31.552 34.432L40.128 34.624Q53.632 35.008 59.456 38.368Q65.28 41.728 65.28 48.96L65.28 49.856Q65.28 52.48 64.64 54.624Q64 56.768 62.08 58.976Q60.16 61.184 56.992 62.688Q53.824 64.192 48.416 65.12Q43.008 66.048 35.776 66.048ZM86.976 65.152L86.976 30.528L66.432 30.528L66.432 17.536L125.696 17.536L125.696 30.528L105.152 30.528L105.152 65.152L86.976 65.152ZM160.128 45.568L152.128 29.184L144.32 45.568L160.128 45.568ZM169.664 65.152L165.952 57.472L138.752 57.472L135.104 65.152L116.672 65.152L140.224 17.536L164.672 17.536L189.568 65.152L169.664 65.152ZM221.76 66.048L219.264 66.048Q210.88 66.048 204.576 64.384Q198.272 62.72 194.752 60.256Q191.232 57.792 189.056 54.4Q186.88 51.008 186.24 48.128Q185.6 45.248 185.6 42.112L185.6 40.256Q185.6 37.056 186.208 34.24Q186.816 31.424 188.928 28.064Q191.04 24.704 194.528 22.304Q198.016 19.904 204.384 18.272Q210.752 16.64 219.264 16.64L221.76 16.64Q227.712 16.64 232.672 17.408Q237.632 18.176 240.992 19.392Q244.352 20.608 246.944 22.304Q249.536 24 251.008 25.728Q252.48 27.456 253.408 29.408Q254.336 31.36 254.624 32.896Q254.912 34.432 254.912 35.904L254.912 36.736L236.032 36.736Q233.856 29.44 220.352 29.44Q204.416 29.44 204.416 40.576L204.416 41.344Q204.416 43.456 205.152 45.376Q205.888 47.296 207.584 49.152Q209.28 51.008 212.576 52.096Q215.872 53.184 220.416 53.184Q224.384 53.184 227.392 52.448Q230.4 51.712 231.936 50.816Q233.472 49.92 234.496 48.576Q235.52 47.232 235.712 46.656Q235.904 46.08 236.096 45.376L254.912 45.376L254.912 46.4Q254.912 48.576 254.272 50.848Q253.632 53.12 251.456 55.968Q249.28 58.816 245.856 60.96Q242.432 63.104 236.192 64.576Q229.952 66.048 221.76 66.048ZM277.44 65.152L259.264 65.152L259.264 17.536L277.44 17.536L277.44 36.352L300.864 17.536L323.456 17.536L295.744 39.168L324.352 65.152L300.672 65.152L277.44 43.84L277.44 65.152Z" />
    </g>
  </g>
</svg>